<?xml version="1.0" standalone="no"?>
<!DOCTYPE svg PUBLIC "-//W3C//DTD SVG 20010904//EN"
 "http://www.w3.org/TR/2001/REC-SVG-20010904/DTD/svg10.dtd">
<svg version="1.0" xmlns="http://www.w3.org/2000/svg"
 width="719.000000pt" height="719.000000pt" viewBox="0 0 719.000000 719.000000"
 preserveAspectRatio="xMidYMid meet">

<g transform="translate(0.000000,719.000000) scale(0.100000,-0.100000)"
fill="#000000" stroke="none">
<path d="M1517 6563 c-10 -106 -8 -460 3 -574 16 -152 80 -464 130 -634 35
-116 108 -332 133 -390 16 -38 45 -108 64 -155 69 -171 141 -307 164 -313 18
-5 20 -9 11 -20 -7 -8 -9 -17 -5 -21 4 -4 12 3 18 14 11 20 12 20 26 4 12 -16
12 -17 -3 -11 -12 4 -18 2 -18 -8 0 -30 27 -13 110 68 74 71 94 85 155 106 39
13 71 25 73 26 2 2 -12 27 -31 57 -52 81 -78 148 -58 148 23 0 345 -231 464
-333 31 -27 57 -45 57 -39 0 5 -7 15 -16 23 -42 35 -232 298 -296 409 -60 105
-218 484 -206 495 3 3 46 -36 97 -86 52 -49 95 -88 97 -87 8 9 -178 312 -253
411 -23 31 -40 57 -36 57 10 0 183 -158 266 -244 68 -70 147 -166 209 -256 14
-19 16 -20 11 -5 -10 33 -160 261 -251 385 -216 292 -478 579 -697 765 -97 83
-109 94 -70 70 186 -112 648 -491 999 -819 191 -178 210 -195 218 -190 4 3 5
-3 1 -12 -4 -12 -3 -15 5 -10 7 4 12 2 12 -4 0 -10 44 -56 85 -90 17 -14 17
-14 7 7 -7 12 -24 31 -38 42 -15 12 -22 21 -15 21 6 0 11 5 11 11 0 6 -7 8
-16 5 -14 -6 -15 -4 -4 9 12 15 14 15 22 1 5 -9 6 -20 3 -26 -3 -5 6 -17 20
-26 20 -13 29 -14 38 -5 6 6 21 11 33 11 16 0 26 10 38 40 9 22 22 40 30 40
20 0 29 -17 14 -23 -7 -2 -10 -8 -6 -12 10 -11 28 4 39 32 8 21 14 24 36 18
16 -4 29 -2 34 6 4 7 14 9 25 4 18 -7 18 -7 0 -14 -10 -4 11 -7 48 -7 36 0 66
4 66 8 0 5 -5 6 -12 2 -6 -4 -8 -3 -4 4 3 5 3 12 -1 15 -5 2 -1 2 7 -1 8 -2
35 -6 60 -8 40 -4 37 -2 -25 15 -38 11 -101 31 -140 44 -130 46 -260 86 -345
107 -109 27 -111 29 -319 210 -47 41 -118 102 -156 135 -39 33 -77 66 -85 74
-27 26 -294 246 -355 292 -144 110 -437 299 -464 299 -4 0 -11 -30 -14 -67z
m397 -759 c3 -8 2 -12 -4 -9 -6 3 -10 10 -10 16 0 14 7 11 14 -7z m108 -224
c107 -250 145 -414 135 -595 -9 -185 -66 -248 -148 -164 -70 72 -146 215 -193
364 -21 66 -42 131 -47 145 -13 37 -59 222 -59 238 0 11 3 12 14 3 12 -10 13
-8 8 11 -5 20 -3 21 10 10 14 -11 16 -10 12 10 -2 13 -1 17 2 10 5 -10 14 -6
35 17 15 17 33 31 38 31 6 0 11 6 11 14 0 18 13 26 56 36 26 6 34 4 37 -9 3
-9 5 -4 6 12 0 15 -3 27 -7 27 -4 0 -9 10 -9 22 -3 30 46 -60 99 -182z m1118
-54 c0 -2 -7 -7 -16 -10 -8 -3 -12 -2 -9 4 6 10 25 14 25 6z m90 -16 c8 -5 12
-11 9 -14 -3 -3 -14 1 -25 9 -21 16 -8 20 16 5z m77 -40 c18 -14 21 -20 10
-20 -9 0 -22 6 -29 13 -7 8 -20 16 -28 20 -11 4 -11 6 3 6 11 1 30 -8 44 -19z
m-1399 -575 c-3 -3 -9 2 -12 12 -6 14 -5 15 5 6 7 -7 10 -15 7 -18z m-1 -107
c-3 -8 -6 -5 -6 6 -1 11 2 17 5 13 3 -3 4 -12 1 -19z m63 -38 c0 -5 -2 -10 -4
-10 -3 0 -8 5 -11 10 -3 6 -1 10 4 10 6 0 11 -4 11 -10z m-43 -52 c-3 -8 -6
-5 -6 6 -1 11 2 17 5 13 3 -3 4 -12 1 -19z m74 -28 c10 -22 16 -40 14 -40 -6
0 -45 71 -45 82 0 17 11 2 31 -42z m-21 -72 c0 -6 -7 -5 -15 2 -8 7 -15 17
-15 22 0 6 7 5 15 -2 8 -7 15 -17 15 -22z m83 -68 c3 -11 2 -20 -3 -20 -4 0
-10 11 -12 25 -6 29 7 25 15 -5z"/>
<path d="M5630 6582 c-252 -141 -522 -351 -970 -752 -202 -180 -208 -184 -393
-220 -31 -6 -55 -16 -52 -21 3 -5 0 -6 -8 -4 -19 8 -103 -31 -85 -39 7 -3 1
-4 -14 -1 -25 5 -47 -2 -133 -41 -16 -7 -57 -22 -90 -33 -33 -11 -52 -20 -43
-21 9 0 29 5 44 10 15 6 29 8 33 5 8 -9 -21 -25 -49 -26 -18 -1 -20 -3 -7 -6
10 -3 32 1 48 7 23 10 27 15 18 26 -9 11 -6 14 15 14 14 0 26 4 26 10 0 5 7 7
15 4 10 -4 13 -13 9 -26 -4 -15 -3 -18 6 -13 8 5 18 1 26 -10 8 -10 17 -15 21
-11 4 4 0 12 -9 17 -12 7 -14 16 -9 36 10 36 33 44 27 9 -5 -28 11 -35 31 -15
8 8 17 7 33 -4 13 -9 34 -13 52 -10 50 8 76 -3 71 -29 -3 -18 2 -25 26 -35 19
-7 31 -7 31 -1 0 5 7 3 15 -6 9 -8 12 -22 9 -33 -6 -16 -5 -15 9 2 9 11 11 22
6 23 -19 7 -8 24 12 19 12 -3 22 0 26 9 3 8 9 14 13 14 5 0 33 23 62 51 310
299 951 839 1130 951 41 26 34 7 -7 -21 -55 -37 -257 -231 -353 -339 -192
-215 -394 -482 -541 -716 -103 -164 -137 -243 -45 -104 70 105 198 251 316
361 56 53 104 95 105 93 2 -2 -23 -43 -56 -92 -62 -93 -221 -376 -215 -383 2
-2 23 18 46 45 92 104 143 155 146 146 6 -18 -80 -264 -134 -384 -73 -161
-190 -333 -371 -548 l-38 -44 37 28 c20 15 38 31 40 35 9 23 313 264 416 330
56 36 72 35 54 -2 -32 -66 -60 -137 -55 -137 4 0 -2 -7 -13 -15 -18 -14 -17
-14 16 -15 42 0 124 -22 167 -44 43 -23 103 -91 103 -119 0 -18 2 -19 10 -7 6
10 10 11 10 3 0 -37 26 2 94 142 42 86 76 159 76 163 0 4 7 19 14 34 70 134
221 610 270 854 54 264 60 333 61 631 0 180 -4 286 -10 292 -7 7 -37 -4 -95
-37z m-280 -827 c0 -8 -7 -15 -15 -15 -9 0 -20 -12 -25 -26 -13 -32 -13 -31 4
-37 10 -4 12 0 8 16 -5 19 -3 20 10 9 13 -11 17 -11 21 0 2 7 2 3 0 -9 -2 -17
1 -21 16 -18 15 3 18 -1 14 -18 -4 -20 -3 -20 7 -4 15 23 40 22 40 -3 0 -21
32 -44 45 -32 5 4 5 -1 2 -10 -4 -10 -2 -18 5 -18 6 0 17 -8 25 -17 8 -10 12
-13 10 -8 -3 6 1 19 9 30 13 18 14 17 8 -15 -33 -188 -171 -608 -256 -777 -23
-46 -34 -56 -25 -23 7 27 -10 36 -32 16 -22 -20 -36 -20 -71 1 -44 26 -54 77
-47 261 3 86 12 182 20 213 37 142 147 415 162 401 4 -4 5 -2 1 5 -3 7 3 29
14 50 11 21 20 33 20 28 0 -5 5 -4 12 3 16 16 18 15 18 -3z m-1053 -161 c-3
-3 -12 -4 -19 -1 -8 3 -5 6 6 6 11 1 17 -2 13 -5z m-137 -64 c0 -5 -2 -10 -4
-10 -3 0 -8 5 -11 10 -3 6 -1 10 4 10 6 0 11 -4 11 -10z m-45 -10 c13 -6 15
-9 5 -9 -8 0 -22 4 -30 9 -18 12 -2 12 25 0z m75 0 c0 -5 -2 -10 -4 -10 -3 0
-8 5 -11 10 -3 6 -1 10 4 10 6 0 11 -4 11 -10z m78 -73 c-1 -2 3 -11 11 -20 7
-10 9 -17 4 -17 -16 0 -32 22 -26 37 3 7 8 12 10 9 3 -2 3 -6 1 -9z m992 -717
c0 -5 -4 -10 -10 -10 -5 0 -10 5 -10 10 0 6 5 10 10 10 6 0 10 -4 10 -10z"/>
<path d="M3475 5439 c6 -8 265 -10 309 -1 23 4 -34 7 -137 7 -96 0 -174 -2
-172 -6z"/>
<path d="M3940 5440 c-8 -5 -10 -10 -5 -10 6 0 17 5 25 10 8 5 11 10 5 10 -5
0 -17 -5 -25 -10z"/>
<path d="M3288 5413 c7 -3 16 -2 19 1 4 3 -2 6 -13 5 -11 0 -14 -3 -6 -6z"/>
<path d="M3028 5282 c-3 -11 0 -19 7 -19 7 0 10 8 7 19 -2 10 -6 18 -7 18 -1
0 -5 -8 -7 -18z"/>
<path d="M3060 5261 c0 -5 -3 -18 -7 -28 -6 -17 -6 -17 10 -1 19 18 22 38 7
38 -5 0 -10 -4 -10 -9z"/>
<path d="M3186 5255 c4 -8 8 -15 10 -15 2 0 4 7 4 15 0 8 -4 15 -10 15 -5 0
-7 -7 -4 -15z"/>
<path d="M3140 4540 c6 -11 16 -20 22 -20 6 0 3 9 -7 20 -10 11 -20 20 -22 20
-2 0 1 -9 7 -20z"/>
<path d="M4061 4505 c-18 -19 -39 -35 -47 -35 -8 0 -14 -8 -14 -17 0 -10 -7
-27 -16 -38 -13 -18 -13 -20 3 -27 14 -7 13 -7 -5 -4 -25 5 -62 -24 -62 -47 0
-8 -11 -24 -24 -36 -13 -13 -27 -34 -30 -47 -4 -13 -11 -24 -16 -24 -6 0 -10
-13 -10 -29 0 -16 -7 -34 -15 -41 -9 -7 -15 -29 -15 -51 0 -38 1 -39 35 -39
l35 0 0 -69 c0 -38 3 -83 6 -100 6 -28 10 -31 44 -31 37 0 37 0 49 55 14 61
22 145 23 220 0 35 2 44 8 30 12 -32 25 47 23 137 -2 43 2 80 7 83 6 3 10 21
10 39 0 36 27 75 48 69 7 -3 12 4 12 16 0 29 -11 26 -49 -14z m-42 -220 c0
-18 -1 -17 -13 4 -8 14 -11 32 -8 40 4 12 7 11 13 -5 4 -10 8 -28 8 -39z m-90
-17 c-1 -24 -3 -35 -6 -25 -2 9 -9 17 -14 17 -10 0 -12 33 -2 43 15 16 23 4
22 -35z m21 -288 c0 -5 -2 -10 -4 -10 -3 0 -8 5 -11 10 -3 6 -1 10 4 10 6 0
11 -4 11 -10z"/>
<path d="M3121 4523 c0 -4 4 -17 9 -28 8 -19 9 -19 9 2 1 12 -3 25 -9 28 -5 3
-10 3 -9 -2z"/>
<path d="M3187 4493 c-4 -3 -7 -13 -7 -22 0 -14 2 -14 10 -1 9 13 14 10 33
-15 12 -16 34 -43 49 -59 31 -32 34 -42 16 -49 -10 -3 -9 -9 4 -22 18 -19 49
-14 47 7 0 10 -2 10 -6 1 -8 -22 -26 -14 -20 8 4 13 -1 29 -13 41 -10 11 -36
42 -57 69 -39 49 -45 54 -56 42z"/>
<path d="M3150 4456 c0 -14 4 -27 9 -30 4 -3 8 8 7 24 -1 36 -16 41 -16 6z"/>
<path d="M4079 4473 c-10 -3 -16 -14 -16 -31 0 -15 -3 -43 -7 -62 l-7 -35 14
30 c16 33 39 97 35 100 -2 1 -10 0 -19 -2z"/>
<path d="M5196 4470 c-11 -3 -15 -9 -10 -13 10 -6 42 9 34 16 -3 3 -14 1 -24
-3z"/>
<path d="M3196 4425 c-9 -26 -7 -32 5 -12 6 10 9 21 6 23 -2 3 -7 -2 -11 -11z"/>
<path d="M3220 4400 c0 -6 7 -10 15 -10 8 0 15 2 15 4 0 2 -7 6 -15 10 -8 3
-15 1 -15 -4z"/>
<path d="M5200 4387 c0 -9 -5 -17 -11 -17 -6 0 -4 -7 5 -15 8 -8 23 -12 33 -9
14 4 15 4 4 -4 -18 -13 -7 -28 26 -37 33 -8 73 -32 73 -44 0 -5 -7 -11 -14
-14 -10 -4 -13 -1 -10 7 3 7 -3 19 -12 27 -15 13 -16 11 -10 -11 l8 -25 -17
23 c-14 20 -68 50 -71 40 0 -2 -7 2 -15 9 -23 19 -123 27 -166 12 -21 -7 -33
-14 -26 -16 7 -2 9 -11 6 -19 -4 -10 2 -17 16 -21 14 -3 21 -13 21 -28 0 -13
8 -25 18 -29 17 -5 52 -26 62 -36 10 -10 50 -30 60 -30 6 0 28 -11 50 -25 22
-14 62 -34 90 -44 28 -11 71 -36 95 -55 24 -20 48 -36 53 -36 6 0 17 -6 24
-13 7 -7 40 -34 73 -62 33 -27 89 -76 124 -109 58 -57 62 -58 46 -26 -23 45
-114 177 -181 260 -90 112 -272 293 -288 287 -9 -4 -13 -1 -10 6 2 7 -9 26
-26 42 -23 22 -30 25 -30 12z m-117 -74 c-7 -2 -21 -2 -30 0 -10 3 -4 5 12 5
17 0 24 -2 18 -5z"/>
<path d="M3184 4345 c20 -113 29 -156 32 -152 7 7 -18 150 -28 167 -6 10 -8 6
-4 -15z"/>
<path d="M3260 4301 c0 -6 5 -13 10 -16 6 -3 10 1 10 9 0 9 -4 16 -10 16 -5 0
-10 -4 -10 -9z"/>
<path d="M1838 4202 c-144 -146 -234 -257 -262 -323 -8 -19 -26 -49 -40 -68
-39 -52 -22 -50 26 3 24 26 79 78 123 114 44 37 82 69 85 73 9 11 214 136 285
174 39 21 82 46 97 56 14 11 30 19 35 19 5 0 31 11 59 24 l49 25 -140 -3 c-81
-2 -150 -8 -162 -15 -12 -6 -31 -11 -42 -11 -12 0 -21 -7 -21 -16 0 -8 -5 -12
-11 -9 -7 5 -4 14 7 26 9 11 15 21 12 24 -2 3 -48 -39 -100 -93z m382 78 c0
-5 -12 -10 -27 -9 -25 0 -26 1 -8 9 27 12 35 12 35 0z m-245 -40 c3 -5 2 -10
-4 -10 -5 0 -13 5 -16 10 -3 6 -2 10 4 10 5 0 13 -4 16 -10z m-60 -11 c11 -16
1 -19 -13 -3 -7 8 -8 14 -3 14 5 0 13 -5 16 -11z"/>
<path d="M3360 4288 c0 -9 5 -20 10 -23 13 -8 13 5 0 25 -8 13 -10 13 -10 -2z"/>
<path d="M3236 4234 c-4 -9 -4 -19 -1 -22 2 -3 7 3 11 12 4 9 4 19 1 22 -2 3
-7 -3 -11 -12z"/>
<path d="M3260 4221 c-15 -30 -12 -48 12 -65 23 -16 37 -86 17 -86 -5 0 -9 14
-9 32 0 17 -2 29 -5 26 -6 -5 -6 -34 -2 -186 1 -57 -2 -106 -7 -110 -5 -3 -6
2 -3 12 4 10 4 23 0 29 -4 7 -9 2 -13 -13 -4 -16 2 -39 16 -64 16 -29 20 -45
13 -57 -12 -23 -2 -46 22 -52 11 -3 17 -11 14 -19 -3 -7 6 -25 20 -41 15 -15
24 -31 20 -36 -10 -17 7 -41 30 -41 14 0 25 -7 28 -20 3 -13 0 -20 -10 -20 -8
0 -13 -5 -11 -11 2 -6 8 -10 13 -9 5 1 13 -9 18 -22 6 -18 10 -20 17 -8 7 11
11 11 24 1 9 -7 25 -11 36 -8 15 4 20 0 20 -14 0 -23 13 -24 34 -4 8 8 31 15
50 15 33 0 36 2 36 30 0 23 -4 30 -20 30 -11 0 -20 7 -20 15 0 8 -16 19 -40
25 -24 6 -40 17 -40 25 0 8 -9 15 -20 15 -17 0 -20 7 -20 40 0 33 -3 40 -20
40 -18 0 -20 7 -20 80 l0 80 40 0 c35 0 40 3 40 23 0 19 8 27 43 37 33 11 37
15 20 18 -20 3 -23 9 -23 55 0 38 -3 48 -10 37 -9 -13 -11 -13 -20 0 -5 8 -10
20 -10 27 0 6 -3 13 -7 15 -5 2 -23 36 -42 76 -19 39 -38 72 -42 72 -4 0 -11
9 -14 21 -4 11 -9 18 -12 15 -7 -7 17 -69 30 -77 12 -8 2 -39 -13 -39 -5 0
-10 8 -10 18 0 14 -2 15 -10 2 -5 -8 -10 -11 -10 -7 0 4 -9 3 -20 -3 -17 -9
-20 -8 -20 7 0 21 20 55 20 36 0 -7 9 -13 19 -13 17 0 18 3 8 25 -9 18 -17 23
-32 19 -11 -4 -24 -7 -30 -8 -5 0 -13 -5 -17 -11 -5 -6 -8 -6 -8 2 0 7 -9 10
-21 8 -18 -4 -20 -1 -14 25 8 34 1 39 -15 11z m195 -121 c3 -5 1 -10 -4 -10
-6 0 -11 5 -11 10 0 6 2 10 4 10 3 0 8 -4 11 -10z m49 -86 c8 -21 8 -24 -3
-24 -5 0 -11 9 -14 20 -6 24 8 27 17 4z m-165 -41 c-1 -10 -4 -29 -9 -43 -6
-21 -8 -22 -14 -7 -14 38 -16 49 -10 58 9 16 34 10 33 -8z m21 -308 c0 -8 -2
-15 -4 -15 -2 0 -6 7 -10 15 -3 8 -1 15 4 15 6 0 10 -7 10 -15z"/>
<path d="M3357 4224 c3 -7 9 -14 14 -14 14 0 10 17 -5 23 -10 4 -13 1 -9 -9z"/>
<path d="M3681 4210 c-1 -15 -7 -32 -13 -39 -10 -11 -10 -14 0 -18 6 -3 12
-14 12 -25 0 -12 -3 -18 -7 -15 -13 13 -45 -56 -39 -84 4 -20 1 -31 -12 -38
-15 -9 -13 -10 8 -11 38 0 48 11 59 65 19 96 20 130 6 160 -13 30 -13 30 -14
5z"/>
<path d="M3227 4158 c-4 -13 7 -113 23 -203 9 -50 9 -50 5 13 -3 34 -7 90 -10
125 -3 43 -2 54 4 37 6 -16 9 -19 10 -8 2 37 -21 63 -32 36z"/>
<path d="M5248 4074 c6 -3 12 -12 12 -20 0 -9 10 -14 27 -14 24 0 25 2 13 14
-8 8 -26 17 -40 20 -14 3 -19 3 -12 0z"/>
<path d="M3760 3990 c0 -64 3 -80 15 -80 12 0 15 16 15 80 0 64 -3 80 -15 80
-12 0 -15 -16 -15 -80z"/>
<path d="M5200 4030 c0 -5 5 -10 10 -10 6 0 10 5 10 10 0 6 -4 10 -10 10 -5 0
-10 -4 -10 -10z"/>
<path d="M3580 4010 c0 -11 4 -20 9 -20 5 0 7 9 4 20 -3 11 -7 20 -9 20 -2 0
-4 -9 -4 -20z"/>
<path d="M5249 4003 c-9 -10 -7 -13 9 -13 12 0 24 5 27 10 3 6 13 10 22 10 15
0 15 -2 0 -18 -11 -12 -13 -22 -7 -32 8 -13 10 -12 10 2 0 20 35 42 53 33 6
-4 3 1 -7 9 -23 19 -92 18 -107 -1z"/>
<path d="M5356 3964 c-3 -9 -6 -24 -6 -35 0 -20 -20 -25 -36 -9 -6 6 -10 -7
-12 -38 -1 -26 -6 -48 -12 -50 -5 -2 -10 -21 -10 -43 0 -32 -3 -39 -20 -39
-17 0 -20 -7 -20 -50 0 -39 4 -53 20 -62 11 -7 20 -21 20 -30 0 -12 8 -18 21
-18 18 0 20 -4 15 -27 -15 -67 -19 -133 -7 -133 6 0 11 17 11 40 0 29 4 40 15
40 18 0 21 -60 5 -90 -9 -17 -18 -18 -75 -13 -46 4 -65 2 -65 -6 0 -6 17 -11
40 -11 23 0 40 -5 40 -11 0 -8 -24 -9 -80 -4 l-80 7 0 -26 c0 -21 -5 -26 -26
-26 -14 0 -23 4 -20 9 9 14 -13 17 -81 13 l-61 -4 8 -28 c9 -30 3 -44 -20 -53
-12 -4 -11 -6 3 -6 32 -2 17 -16 -36 -33 -72 -24 -81 -22 -29 4 46 24 42 31
-20 41 -26 4 -38 1 -42 -8 -3 -8 -22 -16 -43 -18 -28 -3 -22 -4 22 -6 55 -1
58 -3 41 -16 -14 -11 -16 -15 -5 -15 12 0 12 -2 -1 -10 -8 -5 -28 -7 -45 -4
-17 3 -45 -1 -65 -10 -19 -8 -27 -15 -18 -16 27 0 31 -18 7 -30 -15 -9 -24 -9
-32 -1 -8 8 -6 11 9 11 17 1 16 2 -5 14 -18 10 -20 15 -10 19 8 3 -5 6 -28 6
-52 1 -57 -15 -8 -25 19 -3 32 -11 29 -16 -4 -6 -1 -14 7 -18 9 -6 4 -10 -17
-15 -59 -12 -79 -21 -79 -35 0 -22 -35 -46 -77 -54 -21 -4 -40 -12 -44 -17 -4
-8 2 -9 17 -5 23 7 23 7 4 -8 -11 -8 -25 -20 -31 -25 -7 -5 -15 -8 -18 -5 -3
2 -4 1 -1 -3 4 -4 -11 -12 -32 -18 -22 -6 -38 -17 -38 -25 0 -20 -88 -101 -96
-88 -9 14 -21 -6 -14 -24 3 -8 -4 -23 -16 -34 -22 -19 -22 -19 -15 1 5 15 4
17 -4 8 -7 -6 -9 -17 -4 -25 7 -11 28 6 89 69 44 46 78 88 76 95 -2 7 3 9 13
5 11 -4 15 -3 11 4 -4 6 -1 9 6 7 8 -1 35 13 62 31 35 25 44 37 35 44 -9 6 -7
7 5 3 12 -4 38 7 70 28 108 71 232 137 315 168 85 31 91 32 257 32 158 1 176
-1 260 -27 177 -55 293 -125 444 -271 94 -91 94 -91 -3 54 -107 160 -276 352
-341 388 -11 6 -17 13 -14 16 13 13 274 -130 379 -208 80 -59 239 -223 280
-289 76 -121 48 -40 -56 165 -30 59 -66 127 -82 152 -99 163 -156 245 -303
441 -89 119 -228 258 -251 252 -10 -3 -15 -1 -12 5 7 11 -34 58 -52 58 -6 0
-15 -7 -18 -16z m-129 -630 c-3 -3 -12 -4 -19 -1 -8 3 -5 6 6 6 11 1 17 -2 13
-5z m-183 -17 c19 -19 -5 -37 -49 -37 -31 0 -35 3 -35 25 0 22 4 25 36 25 19
0 41 -6 48 -13z m189 -14 c-7 -2 -19 -2 -25 0 -7 3 -2 5 12 5 14 0 19 -2 13
-5z m-6 -39 c-2 -2 -19 -1 -37 3 -28 5 -31 8 -15 13 19 7 62 -6 52 -16z m-204
-1 c-7 -2 -19 -2 -25 0 -7 3 -2 5 12 5 14 0 19 -2 13 -5z m50 0 c-7 -2 -19 -2
-25 0 -7 3 -2 5 12 5 14 0 19 -2 13 -5z m432 -71 c-3 -3 -11 0 -18 7 -9 10 -8
11 6 5 10 -3 15 -9 12 -12z m-738 -8 c-3 -3 -12 -4 -19 -1 -8 3 -5 6 6 6 11 1
17 -2 13 -5z m-40 -10 c-3 -3 -12 -4 -19 -1 -8 3 -5 6 6 6 11 1 17 -2 13 -5z
m-137 -89 c-14 -7 -27 -11 -30 -9 -6 7 22 24 40 23 9 0 5 -6 -10 -14z"/>
<path d="M3921 3798 c0 -18 4 -56 8 -85 4 -29 4 -50 -1 -47 -4 3 -8 23 -8 45
0 32 -3 39 -20 39 -17 0 -20 -7 -20 -39 0 -35 -2 -39 -22 -35 l-23 5 23 -10
c24 -11 28 -26 11 -37 -6 -3 -9 -20 -6 -38 3 -17 3 -26 1 -20 -4 9 -19 7 -54
-4 -50 -16 -50 -16 -50 -58 0 -41 1 -43 33 -46 l32 -3 -31 -16 c-29 -15 -31
-15 -55 12 -23 28 -59 39 -59 19 0 -5 9 -10 20 -10 13 0 28 -13 41 -34 18 -31
22 -33 44 -23 15 8 19 14 12 19 -6 4 0 9 16 13 15 4 24 11 21 16 -3 5 2 6 11
3 22 -9 42 12 49 51 7 33 26 50 26 23 1 -19 40 34 40 54 0 9 5 20 11 24 6 3 9
17 6 31 -3 18 -1 23 11 18 11 -4 12 -2 4 7 -6 7 -14 46 -17 86 -7 67 -9 72
-31 72 -21 0 -24 -5 -23 -32z m6 -170 c-3 -8 -6 -5 -6 6 -1 11 2 17 5 13 3 -3
4 -12 1 -19z m23 -25 c0 -14 -19 -38 -25 -32 -8 8 5 39 16 39 5 0 9 -3 9 -7z"/>
<path d="M5185 3820 c3 -5 8 -10 11 -10 2 0 4 5 4 10 0 6 -5 10 -11 10 -5 0
-7 -4 -4 -10z"/>
<path d="M1585 3764 c-9 -15 -12 -23 -6 -20 11 7 35 46 28 46 -3 0 -12 -12
-22 -26z"/>
<path d="M4002 3760 c0 -14 2 -19 5 -12 2 6 2 18 0 25 -3 6 -5 1 -5 -13z"/>
<path d="M4047 3763 c-4 -3 -7 -11 -7 -17 0 -6 5 -5 12 2 6 6 9 14 7 17 -3 3
-9 2 -12 -2z"/>
<path d="M4518 3730 c-92 -7 -120 -20 -208 -94 -47 -40 -158 -174 -197 -238
-43 -72 -85 -168 -73 -168 6 0 10 4 10 8 0 5 7 17 15 28 8 11 3 -13 -12 -56
-21 -63 -27 -98 -31 -217 -3 -81 -1 -143 4 -143 5 0 20 33 32 73 35 106 103
243 156 315 61 82 151 149 214 157 99 14 170 45 255 112 45 36 88 67 94 70 7
3 11 8 8 12 -8 14 156 92 207 98 27 3 44 9 38 13 -9 6 -9 9 0 12 12 4 -353 28
-400 26 -14 -1 -64 -4 -112 -8z m144 -70 c-12 -93 -56 -155 -136 -191 -43 -20
-107 -24 -141 -9 -14 6 -7 8 23 5 27 -3 41 -1 37 5 -4 6 5 10 21 10 15 0 24 3
21 7 -4 3 1 12 11 19 15 12 13 13 -16 14 -19 0 -47 -8 -63 -17 -24 -15 -31
-15 -54 -3 -34 18 -44 59 -20 77 11 7 15 13 9 13 -11 1 26 30 38 30 4 0 8 -10
8 -23 0 -13 6 -32 14 -42 19 -26 38 -9 67 60 22 53 24 54 73 64 28 5 65 8 81
8 26 -2 30 -5 27 -27z"/>
<path d="M2390 3719 c-85 -14 -90 -20 -33 -35 59 -15 162 -65 187 -89 29 -29
180 -146 206 -160 14 -7 62 -21 105 -30 44 -9 98 -27 120 -40 50 -29 117 -100
173 -183 47 -68 130 -254 139 -308 10 -60 23 -25 23 61 0 105 -16 224 -40 295
-18 53 -18 54 0 32 10 -12 20 -28 23 -35 2 -6 7 -10 10 -7 9 9 -79 178 -123
236 -21 28 -54 68 -74 89 -20 21 -36 40 -36 42 0 19 -149 119 -195 132 -47 13
-404 13 -485 0z m382 -44 l56 -6 18 -48 c32 -89 65 -105 82 -40 4 18 13 34 20
37 18 6 72 -59 72 -86 l0 -24 -135 4 c-131 3 -135 2 -98 -13 29 -12 33 -17 19
-22 -11 -5 -15 -3 -10 5 5 7 2 9 -8 5 -36 -13 -118 110 -118 179 0 20 4 24 23
20 12 -3 48 -8 79 -11z m153 -225 c-11 -5 -27 -9 -35 -9 -9 0 -8 4 5 9 11 5
27 9 35 9 9 0 8 -4 -5 -9z"/>
<path d="M1529 3683 c-38 -59 -48 -77 -58 -98 -5 -11 -27 -58 -48 -105 -54
-116 -60 -133 -82 -230 -25 -113 -33 -204 -22 -265 5 -27 9 -43 10 -34 1 22
75 165 95 185 24 24 19 4 -18 -70 -43 -84 -58 -169 -57 -310 1 -158 19 -254
77 -421 40 -115 164 -370 196 -405 10 -11 16 -20 13 -20 -4 0 4 -15 17 -32 13
-18 30 -45 38 -59 75 -129 75 -129 95 -123 14 4 16 3 6 -4 -16 -11 -8 -28 46
-104 37 -51 52 -63 32 -26 -34 63 -80 201 -93 277 -34 196 -37 236 -24 262 28
53 30 53 48 3 24 -69 57 -135 81 -164 20 -24 21 -25 16 -2 -3 13 -1 20 5 16 5
-3 7 -16 4 -29 -4 -17 8 -38 53 -91 32 -38 63 -68 69 -67 5 1 13 -9 16 -23 5
-18 12 -24 22 -20 9 3 12 2 9 -4 -9 -15 111 -134 126 -124 8 4 9 3 5 -4 -8
-14 92 -95 106 -85 6 3 8 1 4 -5 -6 -10 128 -101 156 -106 7 -1 25 -10 40 -20
15 -10 31 -15 36 -12 5 3 17 -3 27 -14 10 -11 22 -20 28 -20 10 0 74 -27 97
-41 32 -20 66 -31 92 -32 15 0 25 -4 22 -9 -3 -4 4 -8 15 -8 10 0 21 -3 23 -7
7 -17 96 -56 108 -48 8 5 11 4 7 -1 -9 -15 101 -77 121 -69 9 3 14 3 10 0 -3
-4 46 -42 110 -85 64 -43 146 -105 181 -137 85 -76 245 -265 272 -320 33 -68
43 -65 35 13 -12 121 -27 187 -62 279 -19 49 -38 92 -42 95 -4 3 -23 30 -42
60 -18 30 -51 76 -72 102 -22 27 -37 48 -34 48 8 0 114 -82 157 -122 86 -78
162 -202 204 -333 19 -57 20 -58 23 -26 7 72 -17 259 -44 341 -67 203 -265
423 -504 560 -123 70 -267 178 -324 242 -68 77 -131 194 -156 294 -22 84 -27
235 -10 294 10 34 10 34 -9 15 -55 -57 -77 -242 -46 -382 44 -193 176 -418
357 -609 39 -41 67 -74 64 -74 -4 0 -27 13 -50 30 -24 16 -88 53 -142 81 -170
90 -341 207 -451 309 -30 28 -59 50 -65 50 -6 0 1 -9 15 -20 14 -12 25 -26 23
-33 -1 -7 -1 -9 1 -4 8 12 22 -3 17 -17 -3 -9 1 -13 13 -13 12 2 21 -9 30 -33
6 -19 12 -31 12 -27 1 5 8 1 17 -7 18 -18 39 -22 28 -4 -4 7 -3 8 5 4 6 -4 9
-11 6 -16 -3 -5 6 -18 21 -29 14 -11 23 -24 20 -30 -3 -5 2 -7 11 -5 21 6 104
-67 85 -74 -7 -2 -12 -9 -12 -15 0 -8 4 -7 12 1 7 7 21 12 33 11 11 0 15 -3 8
-5 -6 -3 6 -21 29 -43 24 -24 35 -41 29 -45 -6 -4 -11 -2 -11 3 0 6 -6 11 -13
11 -45 0 -269 144 -327 211 -8 10 -35 34 -60 54 -25 21 -44 39 -42 41 2 3 -32
60 -55 93 -2 2 -6 1 -9 -2 -6 -6 67 -124 118 -192 29 -38 188 -214 217 -239
11 -11 21 -25 21 -32 0 -32 -161 67 -330 204 -74 61 -237 222 -300 298 -75 91
-168 229 -213 319 -98 193 -129 414 -86 615 25 116 96 250 174 328 45 44 46
56 2 22 -14 -11 -29 -20 -34 -20 -4 0 -25 -9 -45 -20 -125 -66 -233 -212 -268
-359 -11 -47 -14 -51 -24 -35 -6 11 -11 65 -11 124 0 117 22 207 77 315 31 59
87 146 114 175 7 8 41 44 74 79 33 36 60 66 60 68 0 5 -93 -8 -140 -19 -52
-12 -107 -33 -168 -65 -24 -13 -55 -23 -69 -23 -23 0 -25 3 -19 30 3 17 2 30
-3 30 -14 0 -21 43 -9 57 8 11 7 12 -6 7 -22 -8 -20 1 9 44 14 20 25 43 25 52
0 13 1 13 11 0 8 -12 10 -12 8 5 -3 40 12 66 35 60 11 -2 15 -2 9 1 -7 3 -13
12 -13 19 0 7 6 16 13 18 7 3 8 6 1 6 -6 1 -22 -16 -35 -36z m-102 -255 c-3
-8 -6 -5 -6 6 -1 11 2 17 5 13 3 -3 4 -12 1 -19z m2 -48 c5 -16 8 -30 6 -30
-2 0 -10 14 -19 30 -8 17 -11 30 -6 30 4 0 13 -13 19 -30z m-32 -22 c-3 -8 -6
-5 -6 6 -1 11 2 17 5 13 3 -3 4 -12 1 -19z m3 -38 c0 -5 -2 -10 -4 -10 -3 0
-8 5 -11 10 -3 6 -1 10 4 10 6 0 11 -4 11 -10z m-43 -82 c-3 -8 -6 -5 -6 6 -1
11 2 17 5 13 3 -3 4 -12 1 -19z m200 -1138 c6 -31 18 -39 26 -17 2 6 4 0 3
-15 -1 -25 -2 -25 -18 -11 -10 9 -18 24 -18 33 0 9 -5 21 -12 28 -9 9 -9 12 0
12 7 0 15 -13 19 -30z m113 -160 c0 -5 -4 -10 -10 -10 -5 0 -10 5 -10 10 0 6
5 10 10 10 6 0 10 -4 10 -10z m88 -141 c-3 -8 -7 -3 -11 10 -4 17 -3 21 5 13
5 -5 8 -16 6 -23z m312 -49 c0 -5 -5 -10 -11 -10 -5 0 -7 5 -4 10 3 6 8 10 11
10 2 0 4 -4 4 -10z m-302 -25 c-3 -3 -9 2 -12 12 -6 14 -5 15 5 6 7 -7 10 -15
7 -18z m352 -25 c0 -5 -2 -10 -4 -10 -3 0 -8 5 -11 10 -3 6 -1 10 4 10 6 0 11
-4 11 -10z m280 -240 c0 -5 -2 -10 -4 -10 -3 0 -8 5 -11 10 -3 6 -1 10 4 10 6
0 11 -4 11 -10z m360 -119 c3 -2 -5 -1 -17 2 -14 3 -23 0 -24 -6 0 -8 -2 -8
-6 1 -2 6 -12 12 -21 13 -10 1 -7 4 8 8 22 7 37 2 60 -18z m40 -27 c0 -2 -7
-4 -15 -4 -8 0 -15 4 -15 10 0 5 7 7 15 4 8 -4 15 -8 15 -10z m70 -54 c24 -15
7 -18 -20 -3 -14 7 -18 13 -10 13 8 0 22 -4 30 -10z m37 -36 c-3 -3 -12 -4
-19 -1 -8 3 -5 6 6 6 11 1 17 -2 13 -5z"/>
<path d="M4005 3699 c-4 -6 -5 -12 -2 -15 2 -3 7 2 10 11 7 17 1 20 -8 4z"/>
<path d="M3800 3630 c0 -36 3 -40 25 -40 17 0 25 5 25 18 0 14 -2 15 -10 2 -7
-11 -10 -5 -10 23 0 26 -4 37 -15 37 -11 0 -15 -11 -15 -40z"/>
<path d="M4945 3650 c3 -5 8 -10 11 -10 2 0 4 5 4 10 0 6 -5 10 -11 10 -5 0
-7 -4 -4 -10z"/>
<path d="M4878 3604 c13 -9 26 -13 30 -9 8 8 -17 25 -38 25 -9 0 -6 -6 8 -16z"/>
<path d="M1486 3551 c-5 -8 -2 -20 8 -29 17 -17 19 -9 7 22 -6 15 -10 16 -15
7z"/>
<path d="M4878 3513 c7 -3 16 -2 19 1 4 3 -2 6 -13 5 -11 0 -14 -3 -6 -6z"/>
<path d="M3910 3488 c0 -19 2 -20 10 -8 13 19 13 30 0 30 -5 0 -10 -10 -10
-22z"/>
<path d="M3480 3416 c0 -13 29 -31 37 -23 2 2 1 12 -3 21 -8 20 -34 21 -34 2z"/>
<path d="M3701 3414 c0 -11 3 -14 6 -6 3 7 2 16 -1 19 -3 4 -6 -2 -5 -13z"/>
<path d="M3550 3410 c0 -5 11 -10 25 -10 14 0 25 5 25 10 0 6 -11 10 -25 10
-14 0 -25 -4 -25 -10z"/>
<path d="M4445 3380 c-4 -6 7 -10 27 -10 25 0 29 3 18 10 -19 13 -37 13 -45 0z"/>
<path d="M4595 3360 c-4 -6 5 -10 19 -10 14 0 26 5 26 10 0 6 -9 10 -19 10
-11 0 -23 -4 -26 -10z"/>
<path d="M4750 3360 c0 -5 11 -10 25 -10 14 0 25 5 25 10 0 6 -11 10 -25 10
-14 0 -25 -4 -25 -10z"/>
<path d="M4438 3353 c7 -3 16 -2 19 1 4 3 -2 6 -13 5 -11 0 -14 -3 -6 -6z"/>
<path d="M4855 3340 c-3 -5 -17 -10 -31 -10 -28 0 -33 -24 -6 -35 71 -29 85
-25 86 27 1 22 -3 28 -21 28 -12 0 -25 -4 -28 -10z"/>
<path d="M4680 3215 c0 -8 5 -15 10 -15 6 0 10 7 10 15 0 8 -4 15 -10 15 -5 0
-10 -7 -10 -15z"/>
<path d="M5145 3170 c3 -5 12 -10 20 -10 7 0 20 -6 27 -13 7 -7 25 -21 40 -31
15 -10 45 -45 67 -77 l40 -59 -17 -39 c-16 -37 -19 -39 -73 -45 -90 -11 -398
-90 -491 -128 -144 -58 -234 -115 -334 -213 -102 -100 -154 -175 -238 -343
-81 -162 -141 -222 -269 -270 -70 -26 -150 -28 -207 -6 -37 15 -43 15 -80 0
-85 -34 -221 -9 -327 61 -73 48 -92 73 -174 235 -39 79 -91 170 -114 203 -44
62 -167 185 -186 185 -10 0 -7 -63 12 -220 11 -92 50 -197 102 -277 47 -73
195 -216 357 -345 80 -64 177 -146 215 -182 39 -36 71 -66 73 -66 1 0 18 -18
38 -40 91 -101 161 -214 214 -347 14 -35 27 -63 30 -63 9 0 88 203 124 320 27
88 44 126 71 158 20 23 40 42 44 42 5 0 4 -19 0 -42 -31 -149 -45 -315 -31
-362 8 -28 9 -26 35 47 15 42 41 102 58 132 16 30 26 55 22 55 -4 0 -3 4 3 8
6 4 25 34 44 67 121 217 280 404 554 656 122 112 401 392 447 448 56 68 102
135 130 186 12 22 32 55 46 73 22 29 29 32 78 32 29 0 82 -9 116 -20 35 -10
64 -18 66 -16 11 11 -124 157 -199 216 -36 28 -128 69 -191 86 -61 16 -151 19
-142 4z m298 -245 c-3 -9 -8 -14 -10 -11 -3 3 -2 9 2 15 9 16 15 13 8 -4z
m-1593 -1022 c0 -2 -28 -17 -62 -35 -78 -40 -158 -44 -228 -11 -100 46 -96 48
105 48 102 0 185 -1 185 -2z"/>
<path d="M4530 3150 c0 -5 7 -10 15 -10 8 0 15 5 15 10 0 6 -7 10 -15 10 -8 0
-15 -4 -15 -10z"/>
<path d="M4482 3098 c1 -18 3 -27 5 -20 3 6 10 12 17 12 6 0 12 9 13 20 1 13
-4 20 -17 20 -15 0 -18 -7 -18 -32z"/>
<path d="M3381 3094 c0 -11 3 -14 6 -6 3 7 2 16 -1 19 -3 4 -6 -2 -5 -13z"/>
<path d="M4507 3066 c-9 -10 -23 -13 -33 -9 -12 4 -15 3 -10 -5 4 -7 13 -12
19 -12 16 1 52 28 45 35 -3 3 -13 -1 -21 -9z"/>
<path d="M3362 3035 c0 -16 2 -22 5 -12 2 9 2 23 0 30 -3 6 -5 -1 -5 -18z"/>
<path d="M3401 3050 c0 -8 4 -22 9 -30 12 -18 12 -2 0 25 -6 13 -9 15 -9 5z"/>
<path d="M4400 3049 c0 -5 5 -7 10 -4 6 3 10 8 10 11 0 2 -4 4 -10 4 -5 0 -10
-5 -10 -11z"/>
<path d="M4142 3000 c0 -14 2 -19 5 -12 2 6 2 18 0 25 -3 6 -5 1 -5 -13z"/>
<path d="M4300 3006 c0 -2 7 -7 16 -10 8 -3 12 -2 9 4 -6 10 -25 14 -25 6z"/>
<path d="M3370 2969 c0 -17 4 -28 10 -24 6 3 10 17 10 31 0 13 -4 24 -10 24
-5 0 -10 -14 -10 -31z"/>
<path d="M3396 2948 c-5 -38 -1 -132 12 -292 l21 -237 -24 -36 c-14 -20 -25
-49 -25 -65 0 -97 119 -224 242 -257 37 -11 54 -11 85 -1 122 39 243 169 243
262 0 55 -43 104 -113 127 -87 30 -284 30 -352 1 -46 -20 -46 -20 -40 0 4 11
2 20 -3 20 -5 0 -7 88 -6 203 1 111 -1 229 -5 262 l-8 60 -3 -55 -3 -55 -6 60
-7 60 -8 -57z m28 -167 c-4 -23 -9 -40 -11 -37 -3 3 -2 23 2 46 4 23 9 39 11
37 3 -2 2 -23 -2 -46z m437 -400 c32 -26 19 -36 -25 -20 -36 13 -42 20 -29 32
11 12 30 8 54 -12z m-357 -10 c7 -11 -42 -44 -54 -36 -16 10 8 45 30 45 10 0
21 -4 24 -9z"/>
<path d="M4260 2980 c0 -5 7 -10 15 -10 8 0 15 5 15 10 0 6 -7 10 -15 10 -8 0
-15 -4 -15 -10z"/>
<path d="M4240 2960 c0 -5 5 -10 11 -10 5 0 7 5 4 10 -3 6 -8 10 -11 10 -2 0
-4 -4 -4 -10z"/>
<path d="M3933 2860 c0 -25 2 -35 4 -22 2 12 2 32 0 45 -2 12 -4 2 -4 -23z"/>
<path d="M4061 2874 c0 -11 3 -14 6 -6 3 7 2 16 -1 19 -3 4 -6 -2 -5 -13z"/>
<path d="M4245 2860 c-3 -6 1 -7 9 -4 18 7 21 14 7 14 -6 0 -13 -4 -16 -10z"/>
<path d="M4045 2765 c2 -27 7 -87 11 -133 3 -45 10 -85 15 -87 4 -3 6 -20 3
-38 -4 -31 -4 -31 7 -7 39 83 50 114 45 127 -3 8 -2 12 2 9 10 -6 46 64 37 72
-3 3 -5 0 -5 -6 0 -6 -7 -18 -16 -27 -15 -14 -17 -14 -29 2 -11 15 -13 9 -10
-42 3 -40 1 -53 -5 -40 l-9 20 0 -20 c-2 -37 -17 -46 -17 -10 0 19 4 35 8 35
4 0 8 7 8 15 0 8 -4 15 -9 15 -14 0 -21 44 -8 52 9 6 9 8 0 8 -7 0 -13 12 -14
28 -1 15 -5 38 -10 52 -6 18 -7 12 -4 -25z"/>
<path d="M3923 2750 c0 -25 2 -35 4 -22 2 12 2 32 0 45 -2 12 -4 2 -4 -23z"/>
<path d="M4071 2774 c0 -11 3 -14 6 -6 3 7 2 16 -1 19 -3 4 -6 -2 -5 -13z"/>
<path d="M3913 2615 c0 -27 2 -38 4 -22 2 15 2 37 0 50 -2 12 -4 0 -4 -28z"/>
<path d="M3902 2495 c0 -16 2 -22 5 -12 2 9 2 23 0 30 -3 6 -5 -1 -5 -18z"/>
<path d="M2211 2156 c-2 -37 31 -146 60 -198 16 -29 29 -46 29 -38 0 8 -9 30
-21 49 -11 18 -18 36 -15 39 3 3 1 10 -4 17 -5 6 -11 20 -13 31 -2 10 -8 27
-12 38 -4 10 -11 32 -15 50 -5 17 -8 22 -9 12z"/>
<path d="M2315 1870 c3 -5 8 -10 11 -10 2 0 4 5 4 10 0 6 -5 10 -11 10 -5 0
-7 -4 -4 -10z"/>
</g>
</svg>
